<svg width="530" height="655" viewBox="0 0 530 655" fill="none" xmlns="http://www.w3.org/2000/svg">
<mask id="path-1-outside-1_157_5" maskUnits="userSpaceOnUse" x="-4" y="-2" width="538" height="659" fill="black">
<rect fill="white" x="-4" y="-2" width="538" height="659"/>
<path d="M93.6136 0.454526L262.364 272.756H267.477L436.227 0.454526H529.551L323.727 327.727L529.551 655H436.227L267.477 387.812H262.364L93.6136 655H0.289773L211.227 327.727L0.289773 0.454526H93.6136Z"/>
</mask>
<path d="M93.6136 0.454526L95.3137 -0.599007L94.7271 -1.54547H93.6136V0.454526ZM262.364 272.756L260.664 273.809L261.25 274.756H262.364V272.756ZM267.477 272.756V274.756H268.591L269.177 273.809L267.477 272.756ZM436.227 0.454526V-1.54547H435.114L434.527 -0.599007L436.227 0.454526ZM529.551 0.454526L531.244 1.51928L533.172 -1.54547H529.551V0.454526ZM323.727 327.727L322.034 326.663L321.365 327.727L322.034 328.792L323.727 327.727ZM529.551 655V657H533.172L531.244 653.935L529.551 655ZM436.227 655L434.536 656.068L435.125 657H436.227V655ZM267.477 387.812L269.168 386.745L268.58 385.812H267.477V387.812ZM262.364 387.812V385.812H261.261L260.673 386.745L262.364 387.812ZM93.6136 655V657H94.716L95.3046 656.068L93.6136 655ZM0.289773 655L-1.3913 653.916L-3.37872 657H0.289773V655ZM211.227 327.727L212.908 328.811L213.607 327.727L212.908 326.644L211.227 327.727ZM0.289773 0.454526V-1.54547H-3.37872L-1.3913 1.53803L0.289773 0.454526ZM91.9136 1.50806L260.664 273.809L264.064 271.702L95.3137 -0.599007L91.9136 1.50806ZM262.364 274.756H267.477V270.756H262.364V274.756ZM269.177 273.809L437.927 1.50806L434.527 -0.599007L265.777 271.702L269.177 273.809ZM436.227 2.45453H529.551V-1.54547H436.227V2.45453ZM527.858 -0.610223L322.034 326.663L325.42 328.792L531.244 1.51928L527.858 -0.610223ZM322.034 328.792L527.858 656.065L531.244 653.935L325.42 326.663L322.034 328.792ZM529.551 653H436.227V657H529.551V653ZM437.918 653.932L269.168 386.745L265.786 388.88L434.536 656.068L437.918 653.932ZM267.477 385.812H262.364V389.812H267.477V385.812ZM260.673 386.745L91.9227 653.932L95.3046 656.068L264.055 388.88L260.673 386.745ZM93.6136 653H0.289773V657H93.6136V653ZM1.97085 656.084L212.908 328.811L209.546 326.644L-1.3913 653.916L1.97085 656.084ZM212.908 326.644L1.97085 -0.62898L-1.3913 1.53803L209.546 328.811L212.908 326.644ZM0.289773 2.45453H93.6136V-1.54547H0.289773V2.45453Z" fill="#D3FF25" mask="url(#path-1-outside-1_157_5)"/>
</svg>
